<?xml version="1.0" encoding="UTF-8"?>
<svg version="1.1" xmlns="http://www.w3.org/2000/svg" width="240" height="240">
<path d="M0 0 C0.72927704 0.00215515 1.45855408 0.0043103 2.20993042 0.00653076 C34.14176105 0.15804286 60.67339871 10.68717576 83.34375 33.47680664 C107.17265291 58.2845063 113.64423267 88.86995388 113.125 122.359375 C112.73230343 134.53951375 110.28103904 145.40065701 102.8125 155.3125 C101.93271484 156.48039062 101.93271484 156.48039062 101.03515625 157.671875 C93.7121188 166.59729488 83.968849 172.40136193 72.8125 175.3125 C71.4925 175.3125 70.1725 175.3125 68.8125 175.3125 C68.83606567 176.60667847 68.83606567 176.60667847 68.86010742 177.92700195 C68.91125955 181.13059267 68.9488616 184.33397515 68.97729492 187.5378418 C68.99237397 188.92397919 69.0128405 190.31006894 69.03881836 191.69604492 C69.07523716 193.68908146 69.09063018 195.68246723 69.10546875 197.67578125 C69.12903442 199.47462769 69.12903442 199.47462769 69.15307617 201.30981445 C68.8125 204.3125 68.8125 204.3125 67.4621582 206.18823242 C64.66274328 208.09607698 63.13682841 207.93973178 59.8125 207.3125 C54.75349354 203.94263025 51.20709651 199.59918836 47.79296875 194.6328125 C42.03224222 186.86168092 35.87552378 178.95362972 26.00891113 176.66107178 C12.84054413 174.76551765 -0.5685344 175.6623755 -13.80574036 176.25337219 C-23.97785889 176.59901389 -32.2935312 174.7065742 -40.3125 168.07421875 C-47.62812722 161.20057734 -53.18530297 154.51419727 -55.2890625 144.5625 C-55.46002441 143.76328125 -55.63098633 142.9640625 -55.80712891 142.140625 C-55.93265137 141.53734375 -56.05817383 140.9340625 -56.1875 140.3125 C-57.15405518 140.29848145 -57.15405518 140.29848145 -58.14013672 140.28417969 C-61.11497767 140.22984956 -64.08834977 140.14633021 -67.0625 140.0625 C-68.07570312 140.04832031 -69.08890625 140.03414062 -70.1328125 140.01953125 C-81.20678398 139.66459627 -88.9183557 136.4810189 -96.921875 128.8046875 C-105.15980072 119.74296921 -107.62929828 110.54926126 -107.37109375 98.53515625 C-105.75276346 70.12829475 -92.93410398 43.93228461 -71.91552734 24.82177734 C-51.47976576 6.97296721 -26.84048139 -0.14251111 0 0 Z " fill="#FE6CC5" transform="translate(117.1875,15.6875)"/>
<path d="M0 0 C13.2 0 26.4 0 40 0 C40.061875 4.723125 40.12375 9.44625 40.1875 14.3125 C40.22846802 16.54253784 40.22846802 16.54253784 40.27026367 18.81762695 C40.27775635 19.98769287 40.28524902 21.15775879 40.29296875 22.36328125 C40.3086792 23.56251221 40.32438965 24.76174316 40.34057617 25.99731445 C40 29 40 29 38.6496582 30.87573242 C35.85024328 32.78357698 34.32432841 32.62723178 31 32 C24.2196558 27.16806513 18.44974809 20.63597622 12.56982422 14.75512695 C10.9803091 13.16783666 9.38290343 11.58876447 7.78515625 10.00976562 C6.77295074 9.00048793 5.76121389 7.99073996 4.75 6.98046875 C3.83734375 6.07192139 2.9246875 5.16337402 1.984375 4.22729492 C0 2 0 2 0 0 Z " fill="#F60A8C" transform="translate(146,191)"/>
<path d="M0 0 C0.66 0 1.32 0 2 0 C2.90931215 13.65988916 -0.076381 23.57377849 -9 34 C-8.32195312 34.08636719 -7.64390625 34.17273438 -6.9453125 34.26171875 C6.02366902 36.21963978 15.51912928 42.08651575 23.85546875 52.265625 C30.67164306 61.89241933 31.44746377 70.34936913 31 82 C30.34 82 29.68 82 29 82 C28.78085938 81.17757812 28.56171875 80.35515625 28.3359375 79.5078125 C23.95114006 64.07189957 15.80901798 51.76565087 1.77734375 43.48046875 C-5.56554341 39.0367885 -5.56554341 39.0367885 -13.61328125 38.7890625 C-16.14028297 40.0044953 -16.14028297 40.0044953 -18.8125 41.9375 C-27.40918761 47.50006257 -35.13033226 47.34698051 -45 47 C-44 45 -44 45 -41.2265625 43.95703125 C-40.03804687 43.57933594 -38.84953125 43.20164063 -37.625 42.8125 C-22.87769381 37.82818595 -13.51189511 29.42643321 -6 16 C-5.48308594 15.19433594 -4.96617187 14.38867188 -4.43359375 13.55859375 C-2.88299862 10.79118283 -2.08916037 8.25715765 -1.3125 5.1875 C-0.93544922 3.72376953 -0.93544922 3.72376953 -0.55078125 2.23046875 C-0.36902344 1.49441406 -0.18726563 0.75835937 0 0 Z " fill="#F71090" transform="translate(188,61)"/>
<path d="M0 0 C0.33 0 0.66 0 1 0 C1.5190978 5.81389541 0.98647381 9.35524463 -2.39453125 14.17578125 C-7.71964408 20.2264569 -14.24053634 21.9346638 -22 23 C-21.34 23.99 -20.68 24.98 -20 26 C-19.62832816 28.76020996 -19.82149364 31.18852476 -20 34 C-20.66 34.66 -21.32 35.32 -22 36 C-22.54269531 35.31292969 -23.08539063 34.62585938 -23.64453125 33.91796875 C-24.71767578 32.56638672 -24.71767578 32.56638672 -25.8125 31.1875 C-26.52019531 30.29417969 -27.22789062 29.40085938 -27.95703125 28.48046875 C-28.63121094 27.66191406 -29.30539063 26.84335938 -30 26 C-30.41781738 25.46294434 -30.83563477 24.92588867 -31.26611328 24.37255859 C-33.75660635 22.40106436 -35.63581414 22.59922885 -38.78515625 22.55859375 C-39.94797119 22.5335376 -41.11078613 22.50848145 -42.30883789 22.48266602 C-43.54754639 22.46776123 -44.78625488 22.45285645 -46.0625 22.4375 C-54.59562123 22.23574939 -63.07483903 22.00397788 -71.5625 21.0625 C-72.28638916 20.98765381 -73.01027832 20.91280762 -73.75610352 20.83569336 C-77.21726637 20.42329769 -79.03880264 19.97413157 -82 18 C-79.74069892 15.74069892 -73.74036677 16.31011754 -70.52148438 16.1015625 C-63.50319929 15.44416893 -60.49186584 12.89185169 -55.8828125 7.54296875 C-55.30273438 6.76566406 -54.72265625 5.98835937 -54.125 5.1875 C-53.52945313 4.39730469 -52.93390625 3.60710937 -52.3203125 2.79296875 C-51.88460937 2.20128906 -51.44890625 1.60960937 -51 1 C-50.34 1.33 -49.68 1.66 -49 2 C-48.71113182 7.68107422 -48.9318473 10.11289634 -52 15 C-46.4491609 14.98050325 -40.89989031 14.92855376 -35.34960938 14.84741211 C-33.46427979 14.82431391 -31.57882268 14.8098557 -29.69335938 14.80444336 C-26.9718554 14.79509358 -24.25233476 14.753974 -21.53125 14.70703125 C-20.69758911 14.7109639 -19.86392822 14.71489655 -19.00500488 14.71894836 C-12.91690972 14.56950425 -8.70852897 12.90870607 -4 9 C-2.27720554 6.66211586 -2.27720554 6.66211586 -1.5 4.1875 C-1.2009375 3.39730469 -0.901875 2.60710937 -0.59375 1.79296875 C-0.3978125 1.20128906 -0.201875 0.60960937 0 0 Z " fill="#F71090" transform="translate(185,129)"/>
<path d="M0 0 C6.14890433 -0.64051087 10.18084535 -0.02711634 15.2734375 3.57421875 C19.2970219 6.89686198 21.40293286 9.77566253 22 15 C22.48726562 14.71125 22.97453125 14.4225 23.4765625 14.125 C30.57917582 10.40581339 37.11880188 10.59641091 45 11 C44.67 11.99 44.34 12.98 44 14 C42.741875 14.2475 41.48375 14.495 40.1875 14.75 C27.96874658 17.15496099 17.8570433 25.98019779 10.9296875 35.9921875 C7.39849121 41.79871529 4.8507126 47.46807316 3 54 C2.67 54 2.34 54 2 54 C1.51130953 41.11305138 2.98533563 33.19866041 11 23 C13.875 20.4375 13.875 20.4375 16 19 C14.86718297 13.17044721 11.19614503 9.49573514 6.37890625 6.21484375 C3.94526513 4.75465908 1.49755634 3.34749581 -1 2 C-0.67 1.34 -0.34 0.68 0 0 Z " fill="#F71090" transform="translate(56,99)"/>
<path d="M0 0 C0.33 0 0.66 0 1 0 C1.05451714 2.04136395 1.09302485 4.08315856 1.125 6.125 C1.14820313 7.26195312 1.17140625 8.39890625 1.1953125 9.5703125 C0.98515922 13.26060416 0.72105402 15.71477087 -1 19 C-3.54494819 20.41219085 -5.73516458 21.40443855 -8.4375 22.375 C-15.82900694 25.30408562 -21.79610297 28.97882164 -28 34 C-29.051875 34.763125 -30.10375 35.52625 -31.1875 36.3125 C-40.94796456 45.63916614 -47.22374452 58.50454375 -52 71 C-52.33 71 -52.66 71 -53 71 C-53.88166839 57.99539121 -48.95006686 45.43731321 -40.70166016 35.42382812 C-32.33559748 25.89427329 -22.29002427 18.60224849 -10 15 C-6.5 14.8125 -6.5 14.8125 -4 15 C-3.87882812 14.33613281 -3.75765625 13.67226563 -3.6328125 12.98828125 C-2.77452292 8.46575541 -1.96028689 4.20061476 0 0 Z " fill="#F70F90" transform="translate(79,38)"/>
<path d="M0 0 C2.37752236 1.87146338 4.05213607 3.64205945 6 6 C6 6.66 6 7.32 6 8 C5.41992188 7.79503906 4.83984375 7.59007812 4.2421875 7.37890625 C3.46101563 7.10949219 2.67984375 6.84007812 1.875 6.5625 C1.10929687 6.29566406 0.34359375 6.02882813 -0.4453125 5.75390625 C-11.71460236 2.42825955 -24.07046375 2.91201454 -35 7 C-36.32890883 7.35055699 -37.66118402 7.68941882 -39 8 C-36.09086026 2.48794575 -32.13088733 -1.14218754 -26.2734375 -3.45703125 C-17.36588753 -5.5844358 -7.8839188 -4.73612705 0 0 Z " fill="#F70F90" transform="translate(140,31)"/>
<path d="M0 0 C0.33 0 0.66 0 1 0 C1 4.29 1 8.58 1 13 C0.34 11.68 -0.32 10.36 -1 9 C-1.99 9.495 -1.99 9.495 -3 10 C-2.01 6.7 -1.02 3.4 0 0 Z " fill="#F8229B" transform="translate(79,38)"/>
<path d="M0 0 C0.33 0 0.66 0 1 0 C1 2.64 1 5.28 1 8 C-0.32 8.33 -1.64 8.66 -3 9 C-2.01 6.03 -1.02 3.06 0 0 Z " fill="#F92DA1" transform="translate(185,129)"/>
</svg>
